# xmcd CD database file
#
# Track frame offsets:
#	150
#	14407
#	29715
#	52900
#	66442
#	86297
#	99227
#	111760
#	129125
#	144485
#	163037
#	176430
#
# Disc length: 2620 seconds
#
# Revision: 0
# Processed by: cddbd v1.5.1PL2 Copyright (c) Steve Scherf et al.
# Submitted via: CDex 1.51
#
DISCID=950a3a0c
DTITLE=SENSHUKAI - moon story - crescent moon
DYEAR=1995
DGENRE=Soul
TTITLE0=You Are Everything/Diana Ross and marvin Gaye
TTITLE1=Truly/Lionel Richie
TTITLE2=I'm Cryin'/Shanice
TTITLE3=Never Can Say Goodbye/The Jackson 5
TTITLE4=Neither One Of Us(Wants To Be The First To Say Goodbye)/Gladys Knight and The Pips
TTITLE5=It's So Had To Say Goodbye To Yesterday/Boys II Men
TTITLE6=Ben/Michael Jackson
TTITLE7=Just My Imagination(Running Away With Me)/The Temptations
TTITLE8=Theme From Mahogany(Do You Know Where You're Going To)/Diana Ross
TTITLE9=One Heartbeat/Smokey Robinson
TTITLE10=My Cherie Amor/Stevie Wonder
TTITLE11=Endless Love/Diana Ross and Lionel Richie
EXTD=YEAR: 1995
EXTT0=
EXTT1=
EXTT2=
EXTT3=
EXTT4=
EXTT5=
EXTT6=
EXTT7=
EXTT8=
EXTT9=
EXTT10=
EXTT11=
PLAYORDER=
